<svg width="40" height="40" viewBox="0 0 40 40" fill="none" xmlns="http://www.w3.org/2000/svg">
<path fill-rule="evenodd" clip-rule="evenodd" d="M32 2H8C4.68629 2 2 4.68629 2 8V32C2 35.3137 4.68629 38 8 38H32C35.3137 38 38 35.3137 38 32V8C38 4.68629 35.3137 2 32 2ZM8 0C3.58172 0 0 3.58172 0 8V32C0 36.4183 3.58172 40 8 40H32C36.4183 40 40 36.4183 40 32V8C40 3.58172 36.4183 0 32 0H8Z" fill="white"/>
<g clip-path="url(#clip0_20_700)">
<path d="M33 20.0792C33 12.855 27.1805 7 20 7C12.8195 7 7 12.855 7 20.0792C7 26.6086 11.7531 32.0191 17.9688 33V23.8599H14.668V20.0792H17.9688V17.1977C17.9688 13.9202 19.9086 12.1091 22.8793 12.1091C24.3012 12.1091 25.7891 12.3645 25.7891 12.3645V15.5832H24.1488C22.534 15.5832 22.0312 16.5923 22.0312 17.6268V20.0792H25.6367L25.0604 23.8599H22.0312V33C28.2469 32.0191 33 26.6086 33 20.0792Z" fill="white"/>
</g>
<defs>
<clipPath id="clip0_20_700">
<rect width="26" height="26" fill="white" transform="translate(7 7)"/>
</clipPath>
</defs>
</svg>
