<svg width="40" height="40" viewBox="0 0 40 40" fill="none" xmlns="http://www.w3.org/2000/svg">
<path fill-rule="evenodd" clip-rule="evenodd" d="M32 2H8C4.68629 2 2 4.68629 2 8V32C2 35.3137 4.68629 38 8 38H32C35.3137 38 38 35.3137 38 32V8C38 4.68629 35.3137 2 32 2ZM8 0C3.58172 0 0 3.58172 0 8V32C0 36.4183 3.58172 40 8 40H32C36.4183 40 40 36.4183 40 32V8C40 3.58172 36.4183 0 32 0H8Z" fill="white"/>
<g clip-path="url(#clip0_1_218)">
<path d="M20 9.34299C23.4732 9.34299 23.8809 9.35848 25.2537 9.42041C26.5232 9.47717 27.2096 9.68877 27.6689 9.86939C28.2779 10.1068 28.7114 10.3855 29.1656 10.8396C29.6197 11.2938 29.9036 11.7273 30.1358 12.3362C30.3113 12.7956 30.528 13.4819 30.5848 14.7515C30.6467 16.1243 30.6622 16.532 30.6622 20.0052C30.6622 23.4784 30.6467 23.8861 30.5848 25.2588C30.528 26.5284 30.3164 27.2148 30.1358 27.6741C29.8984 28.2831 29.6197 28.7166 29.1656 29.1707C28.7114 29.6249 28.2779 29.9087 27.6689 30.1409C27.2096 30.3164 26.5232 30.5331 25.2537 30.5899C23.8809 30.6518 23.4732 30.6673 20 30.6673C16.5268 30.6673 16.1191 30.6518 14.7463 30.5899C13.4768 30.5331 12.7904 30.3216 12.3311 30.1409C11.7221 29.9035 11.2886 29.6249 10.8345 29.1707C10.3803 28.7166 10.0965 28.2831 9.86423 27.6741C9.68877 27.2148 9.47202 26.5284 9.41525 25.2588C9.35332 23.8861 9.33783 23.4784 9.33783 20.0052C9.33783 16.532 9.35332 16.1243 9.41525 14.7515C9.47202 13.4819 9.68361 12.7956 9.86423 12.3362C10.1016 11.7273 10.3803 11.2938 10.8345 10.8396C11.2886 10.3855 11.7221 10.1016 12.3311 9.86939C12.7904 9.69393 13.4768 9.47717 14.7463 9.42041C16.1191 9.35332 16.532 9.34299 20 9.34299ZM20 7C16.47 7 16.0262 7.01548 14.638 7.07741C13.2549 7.13934 12.3104 7.36125 11.4847 7.68122C10.628 8.01151 9.90552 8.4605 9.18301 9.18301C8.4605 9.90552 8.01667 10.6332 7.68122 11.4847C7.36125 12.3104 7.13934 13.2549 7.07741 14.6431C7.01548 16.0262 7 16.47 7 20C7 23.53 7.01548 23.9738 7.07741 25.362C7.13934 26.7451 7.36125 27.6896 7.68122 28.5204C8.01151 29.3771 8.4605 30.0996 9.18301 30.8222C9.90552 31.5447 10.6332 31.9885 11.4847 32.3239C12.3104 32.6439 13.2549 32.8658 14.6431 32.9277C16.0314 32.9897 16.47 33.0052 20.0052 33.0052C23.5403 33.0052 23.979 32.9897 25.3672 32.9277C26.7503 32.8658 27.6947 32.6439 28.5256 32.3239C29.3823 31.9937 30.1048 31.5447 30.8273 30.8222C31.5498 30.0996 31.9937 29.372 32.3291 28.5204C32.6491 27.6947 32.871 26.7503 32.9329 25.362C32.9949 23.9738 33.0103 23.5351 33.0103 20C33.0103 16.4649 32.9949 16.0262 32.9329 14.638C32.871 13.2549 32.6491 12.3104 32.3291 11.4796C31.9988 10.6229 31.5498 9.90036 30.8273 9.17785C30.1048 8.45534 29.3772 8.01151 28.5256 7.67606C27.6999 7.35609 26.7555 7.13418 25.3672 7.07225C23.9738 7.01548 23.53 7 20 7Z" fill="white"/>
<path d="M19.9999 13.3269C16.3152 13.3269 13.3219 16.315 13.3219 20.005C13.3219 23.6949 16.31 26.683 19.9999 26.683C23.6899 26.683 26.678 23.6949 26.678 20.005C26.678 16.315 23.6899 13.3269 19.9999 13.3269ZM19.9999 24.3348C17.6053 24.3348 15.6649 22.3944 15.6649 19.9998C15.6649 17.6052 17.6053 15.6647 19.9999 15.6647C22.3945 15.6647 24.335 17.6052 24.335 19.9998C24.335 22.3944 22.3945 24.3348 19.9999 24.3348Z" fill="white"/>
<path d="M26.9411 14.6174C27.8018 14.6174 28.4996 13.9196 28.4996 13.0588C28.4996 12.198 27.8018 11.5002 26.9411 11.5002C26.0803 11.5002 25.3825 12.198 25.3825 13.0588C25.3825 13.9196 26.0803 14.6174 26.9411 14.6174Z" fill="white"/>
</g>
<defs>
<clipPath id="clip0_1_218">
<rect width="26" height="26" fill="white" transform="translate(7 7)"/>
</clipPath>
</defs>
</svg>
